{"title":"Six Days Seven Nights(1998)MPEG-4[DaScubaDude]","uid":15877898,"size":1128150087,"categoryP":"video","categoryS":"movies","magnet":"?xt=urn:btih:6f3b04126350959030606e34e05637d6a9b81272&amp;dn=Six+Days+Seven+Nights%281998%29MPEG-4%5BDaScubaDude%5D&amp;tr=udp%3A%2F%2Ftracker.leechers-paradise.org%3A6969&amp;tr=udp%3A%2F%2Fzer0day.ch%3A1337&amp;tr=udp%3A%2F%2Fopen.demonii.com%3A1337&amp;tr=udp%3A%2F%2Ftracker.coppersurfer.tk%3A6969&amp;tr=udp%3A%2F%2Fexodus.desync.com%3A6969","seeders":6,"leechers":6,"uploader":"dascuba","files":1,"time":1474549577,"description":"Six Days Seven Nights (1998)\r\nPG-13 | 1h 38min | Action, Adventure, Comedy | 12 June 1998 (USA)\r\nRobin Monroe, a New York magazine editor, and the gruff pilot Quinn Harris must put aside their mutual dislike if they are to survive after crash landing on a deserted South Seas island.\r\nDirector: Ivan Reitman\r\nWriter: Michael Browning\r\nStars: Harrison Ford, Anne Heche, David Schwimmer |\r\n\r\nGeneral\r\nComplete name                            : 6 Days 7 Nights6_DAYS_7_NIGHTS_Title1.mp4\r\nFormat                                   : MPEG-4\r\nFormat profile                           : Base Media\r\nCodec ID                                 : isom (isom/iso2/avc1/mp41)\r\nFile size                                : 1.05 GiB\r\nDuration                                 : 1h 41mn\r\nOverall bit rate mode                    : Variable\r\nOverall bit rate                         : 1 477 Kbps\r\nMovie name                               : 6_DAYS_7_NIGHTS\r\nGenre                                    : Comedy\r\nWriting application                      : Lavf54.6.100\r\n\r\nVideo\r\nID                                       : 1\r\nFormat                                   : AVC\r\nFormat/Info                              : Advanced Video Codec\r\nFormat profile                           :   \r\nFormat settings, CABAC                   : No\r\nFormat settings, ReFrames                : 6 frames\r\nCodec ID                                 : avc1\r\nCodec ID/Info                            : Advanced Video Coding\r\nDuration                                 : 1h 41mn\r\nBit rate                                 : 1 189 Kbps\r\nWidth                                    : 720 pixels\r\nHeight                                   : 540 pixels\r\nDisplay aspect ratio                     : 4:3\r\nFrame rate mode                          : Constant\r\nFrame rate                               : 29.970 (30000/1001) fps\r\nColor space                              : YUV\r\nChroma subsampling                       : 4:2:0\r\nBit depth                                : 8 bits\r\nScan type                                : Progressive\r\nBits/(Pixel*Frame)                       : 0.102\r\nStream size                              : 866 MiB (80%)\r\n\r\nAudio\r\nID                                       : 2\r\nFormat                                   : AAC\r\nFormat/Info                              : Advanced Audio Codec\r\nFormat profile                           : LC\r\nCodec ID                                 : 40\r\nDuration                                 : 1h 41mn\r\nBit rate mode                            : Variable\r\nBit rate                                 : 281 Kbps\r\nMaximum bit rate                         : 293 Kbps\r\nChannel(s)                               : 2 channels\r\nChannel(s)_Original                      : 6 channels\r\nChannel positions                        : Front: L C R, Side: L R, LFE\r\nSampling rate                            : 44.1 KHz\r\nFrame rate                               : 43.066 fps (1024 spf)\r\nCompression mode                         : Lossy\r\nStream size                              : 205 MiB (19%)\r\nDefault                                  : Yes\r\nAlternate group                          : 1","torrent":{"xt":"urn:btih:6f3b04126350959030606e34e05637d6a9b81272","amp;dn":"Six+Days+Seven+Nights%281998%29MPEG-4%5BDaScubaDude%5D","amp;tr":["udp%3A%2F%2Ftracker.leechers-paradise.org%3A6969","udp%3A%2F%2Fzer0day.ch%3A1337","udp%3A%2F%2Fopen.demonii.com%3A1337","udp%3A%2F%2Ftracker.coppersurfer.tk%3A6969","udp%3A%2F%2Fexodus.desync.com%3A6969"],"infoHash":"6f3b04126350959030606e34e05637d6a9b81272","infoHashBuffer":{"type":"Buffer","data":[111,59,4,18,99,80,149,144,48,96,110,52,224,86,55,214,169,184,18,114]},"announce":[],"urlList":[]}}